STARTFONT 2.1
FONT -Monotype-Gill Sans-Regular-I-Normal--18-180-72-72-P-80-iso8859-1
SIZE 18 72 72
FONTBOUNDINGBOX 22 21 -2 -4

STARTPROPERTIES 22
FOUNDRY "Monotype"
FAMILY_NAME "Gill Sans"
WEIGHT_NAME "Regular"
SLANT "I"
SETWIDTH_NAME "Normal"
ADD_STYLE_NAME ""
PIXEL_SIZE 18
POINT_SIZE 180
RESOLUTION_X 72
RESOLUTION_Y 72
SPACING "P"
AVERAGE_WIDTH 80
CHARSET_REGISTRY "iso8859"
CHARSET_ENCODING "1"
COPYRIGHT "Copyright (c) 1996 Monotype Typography Ltd."
CAP_HEIGHT 14
X_HEIGHT 9
WEIGHT 10
QUAD_WIDTH 11
DEFAULT_CHAR 32
FONT_DESCENT 4
FONT_ASCENT 17
ENDPROPERTIES

CHARS 191

STARTCHAR space
ENCODING 32
SWIDTH 278 0
DWIDTH 6 0
BBX 0 0 0 0
BITMAP
ENDCHAR

STARTCHAR exclam
ENCODING 33
SWIDTH 250 0
DWIDTH 5 0
BBX 4 13 1 0
BITMAP
30
30
30
30
30
60
60
60
60
60
00
C0
C0
ENDCHAR

STARTCHAR quotedbl
ENCODING 34
SWIDTH 354 0
DWIDTH 7 0
BBX 5 4 2 9
BITMAP
D8
D8
D8
D8
ENDCHAR

STARTCHAR numbersign
ENCODING 35
SWIDTH 584 0
DWIDTH 11 0
BBX 11 13 0 0
BITMAP
18C0
18C0
18C0
FFE0
FFE0
3180
3180
3180
FFE0
FFE0
6300
6300
6300
ENDCHAR

STARTCHAR dollar
ENCODING 36
SWIDTH 500 0
DWIDTH 10 0
BBX 8 15 1 -2
BITMAP
04
1C
3F
6B
68
78
38
1C
16
16
D6
FE
7C
20
20
ENDCHAR

STARTCHAR percent
ENCODING 37
SWIDTH 708 0
DWIDTH 13 0
BBX 13 13 1 0
BITMAP
1818
2C30
6C60
6CC0
6980
3100
0300
0660
0CB0
19B0
31B0
61A0
C0C0
ENDCHAR

STARTCHAR ampersand
ENCODING 38
SWIDTH 688 0
DWIDTH 13 0
BBX 12 13 1 0
BITMAP
0600
0F00
1900
1300
1600
1C00
3820
6C60
C6C0
C380
C380
66C0
3C70
ENDCHAR

STARTCHAR quoteright
ENCODING 39
SWIDTH 198 0
DWIDTH 4 0
BBX 3 4 1 9
BITMAP
60
60
20
C0
ENDCHAR

STARTCHAR parenleft
ENCODING 40
SWIDTH 292 0
DWIDTH 6 0
BBX 5 17 2 -4
BITMAP
08
18
30
30
60
60
60
C0
C0
C0
C0
C0
C0
C0
40
60
20
ENDCHAR

STARTCHAR parenright
ENCODING 41
SWIDTH 292 0
DWIDTH 6 0
BBX 5 17 0 -4
BITMAP
20
30
10
18
18
18
18
18
18
18
30
30
30
60
60
C0
80
ENDCHAR

STARTCHAR asterisk
ENCODING 42
SWIDTH 448 0
DWIDTH 9 0
BBX 5 7 3 6
BITMAP
20
A8
F8
70
F8
A8
20
ENDCHAR

STARTCHAR plus
ENCODING 43
SWIDTH 584 0
DWIDTH 11 0
BBX 10 10 2 1
BITMAP
0C00
0C00
0C00
0C00
FFC0
FFC0
0C00
0C00
0C00
0C00
ENDCHAR

STARTCHAR comma
ENCODING 44
SWIDTH 198 0
DWIDTH 4 0
BBX 3 4 -1 -2
BITMAP
60
60
20
C0
ENDCHAR

STARTCHAR minus
ENCODING 45
SWIDTH 584 0
DWIDTH 11 0
BBX 9 2 1 5
BITMAP
FF80
FF80
ENDCHAR

STARTCHAR period
ENCODING 46
SWIDTH 198 0
DWIDTH 4 0
BBX 2 2 0 0
BITMAP
C0
C0
ENDCHAR

STARTCHAR slash
ENCODING 47
SWIDTH 281 0
DWIDTH 5 0
BBX 5 13 1 0
BITMAP
18
18
18
30
30
30
30
60
60
60
C0
C0
C0
ENDCHAR

STARTCHAR zero
ENCODING 48
SWIDTH 521 0
DWIDTH 10 0
BBX 9 13 1 0
BITMAP
1E00
3F00
3180
6180
6180
6180
6300
C300
C300
C300
C600
7E00
3C00
ENDCHAR

STARTCHAR one
ENCODING 49
SWIDTH 521 0
DWIDTH 10 0
BBX 4 13 4 0
BITMAP
30
30
30
30
60
60
60
60
60
C0
C0
C0
C0
ENDCHAR

STARTCHAR two
ENCODING 50
SWIDTH 521 0
DWIDTH 10 0
BBX 9 13 0 0
BITMAP
0F00
1F80
1180
0180
0100
0300
0600
0400
0C00
1800
3000
7F00
FF00
ENDCHAR

STARTCHAR three
ENCODING 51
SWIDTH 521 0
DWIDTH 10 0
BBX 9 13 0 0
BITMAP
0F00
1F80
1180
0180
0300
0E00
0E00
0300
0300
0300
C600
FC00
7800
ENDCHAR

STARTCHAR four
ENCODING 52
SWIDTH 521 0
DWIDTH 10 0
BBX 9 13 1 0
BITMAP
0080
0180
0380
0780
0D80
1B00
3300
7F80
FF80
0600
0600
0600
0600
ENDCHAR

STARTCHAR five
ENCODING 53
SWIDTH 521 0
DWIDTH 10 0
BBX 9 13 1 0
BITMAP
0F80
0F80
0C00
1800
1800
3E00
0700
0180
0180
0180
C300
FE00
7C00
ENDCHAR

STARTCHAR six
ENCODING 54
SWIDTH 521 0
DWIDTH 10 0
BBX 8 13 1 0
BITMAP
02
06
0C
18
30
60
7C
FE
C3
C3
C3
7E
3C
ENDCHAR

STARTCHAR seven
ENCODING 55
SWIDTH 521 0
DWIDTH 10 0
BBX 8 13 2 0
BITMAP
FF
FF
03
06
06
0C
0C
18
18
30
30
60
60
ENDCHAR

STARTCHAR eight
ENCODING 56
SWIDTH 521 0
DWIDTH 10 0
BBX 9 13 1 0
BITMAP
0F00
1F80
3180
3180
3300
1E00
1C00
3E00
6300
C300
C300
FE00
7C00
ENDCHAR

STARTCHAR nine
ENCODING 57
SWIDTH 521 0
DWIDTH 10 0
BBX 8 13 2 0
BITMAP
3C
7E
C3
C3
C3
7F
3E
06
0C
18
30
60
40
ENDCHAR

STARTCHAR colon
ENCODING 58
SWIDTH 198 0
DWIDTH 4 0
BBX 3 9 0 0
BITMAP
60
60
00
00
00
00
00
C0
C0
ENDCHAR

STARTCHAR semicolon
ENCODING 59
SWIDTH 198 0
DWIDTH 4 0
BBX 4 11 0 -2
BITMAP
30
30
00
00
00
00
00
60
60
20
C0
ENDCHAR

STARTCHAR less
ENCODING 60
SWIDTH 584 0
DWIDTH 11 0
BBX 9 9 1 2
BITMAP
0080
0380
0F00
3C00
F000
3C00
0F00
0380
0080
ENDCHAR

STARTCHAR equal
ENCODING 61
SWIDTH 584 0
DWIDTH 11 0
BBX 9 6 1 3
BITMAP
FF80
FF80
0000
0000
FF80
FF80
ENDCHAR

STARTCHAR greater
ENCODING 62
SWIDTH 584 0
DWIDTH 11 0
BBX 9 9 1 2
BITMAP
8000
E000
7800
1E00
0780
1E00
7800
E000
8000
ENDCHAR

STARTCHAR question
ENCODING 63
SWIDTH 354 0
DWIDTH 7 0
BBX 6 13 1 0
BITMAP
38
7C
0C
0C
18
30
20
60
40
40
00
C0
C0
ENDCHAR

STARTCHAR at
ENCODING 64
SWIDTH 1010 0
DWIDTH 19 0
BBX 17 16 1 -3
BITMAP
03F000
0E1C00
180600
33D300
67F100
4C3180
CC3080
983080
986180
986100
D8E300
4FB600
671C00
300100
1C0600
07F800
ENDCHAR

STARTCHAR A
ENCODING 65
SWIDTH 521 0
DWIDTH 10 0
BBX 10 13 0 0
BITMAP
0300
0300
0700
0D80
0D80
1980
1980
3180
3F80
7FC0
60C0
C0C0
C0C0
ENDCHAR

STARTCHAR B
ENCODING 66
SWIDTH 510 0
DWIDTH 10 0
BBX 9 13 1 0
BITMAP
3E00
3F00
3300
3300
6300
7E00
7F00
6380
6180
C180
C380
FF00
FE00
ENDCHAR

STARTCHAR C
ENCODING 67
SWIDTH 552 0
DWIDTH 10 0
BBX 10 13 1 0
BITMAP
0FC0
1FC0
3000
6000
6000
C000
C000
C000
C000
C080
6180
7F00
3E00
ENDCHAR

STARTCHAR D
ENCODING 68
SWIDTH 656 0
DWIDTH 12 0
BBX 11 13 1 0
BITMAP
3F00
3F80
30C0
30C0
6060
6060
6060
6060
60C0
C0C0
C180
FF00
FE00
ENDCHAR

STARTCHAR E
ENCODING 69
SWIDTH 510 0
DWIDTH 10 0
BBX 8 13 1 0
BITMAP
3F
3F
30
30
60
7E
7E
60
60
C0
C0
FE
FE
ENDCHAR

STARTCHAR F
ENCODING 70
SWIDTH 417 0
DWIDTH 8 0
BBX 7 13 1 0
BITMAP
3E
3E
30
30
60
7C
7C
60
60
C0
C0
C0
C0
ENDCHAR

STARTCHAR G
ENCODING 71
SWIDTH 604 0
DWIDTH 11 0
BBX 11 13 1 0
BITMAP
0FE0
1FE0
3000
6000
6000
C000
C000
C3C0
C3C0
C0C0
6180
7F00
3E00
ENDCHAR

STARTCHAR H
ENCODING 72
SWIDTH 698 0
DWIDTH 13 0
BBX 12 13 1 0
BITMAP
3030
3030
3030
3030
6060
7FE0
7FE0
6060
6060
C0C0
C0C0
C0C0
C0C0
ENDCHAR

STARTCHAR I
ENCODING 73
SWIDTH 240 0
DWIDTH 5 0
BBX 4 13 1 0
BITMAP
30
30
30
30
60
60
60
60
60
C0
C0
C0
C0
ENDCHAR

STARTCHAR J
ENCODING 74
SWIDTH 240 0
DWIDTH 5 0
BBX 7 17 -2 -4
BITMAP
06
06
06
06
06
0C
0C
0C
0C
0C
18
18
18
18
18
F0
E0
ENDCHAR

STARTCHAR K
ENCODING 75
SWIDTH 563 0
DWIDTH 11 0
BBX 10 13 1 0
BITMAP
30C0
3180
3300
3600
6C00
7800
7000
7800
6C00
C600
C300
C180
C0C0
ENDCHAR

STARTCHAR L
ENCODING 76
SWIDTH 417 0
DWIDTH 8 0
BBX 7 13 1 0
BITMAP
30
30
30
30
60
60
60
60
60
C0
C0
FE
FE
ENDCHAR

STARTCHAR M
ENCODING 77
SWIDTH 813 0
DWIDTH 15 0
BBX 16 13 -1 0
BITMAP
0603
0603
0E07
0F0F
1B0B
1B1B
3333
3133
31E3
61C3
61C3
C083
C083
ENDCHAR

STARTCHAR N
ENCODING 78
SWIDTH 688 0
DWIDTH 13 0
BBX 12 13 1 0
BITMAP
3030
3830
3830
2C30
6C60
6660
6660
6360
6360
C1C0
C1C0
C0C0
C0C0
ENDCHAR

STARTCHAR O
ENCODING 79
SWIDTH 656 0
DWIDTH 12 0
BBX 11 13 1 0
BITMAP
0F80
1FC0
30C0
6060
6060
C060
C060
C060
C0C0
C0C0
6180
7F00
3E00
ENDCHAR

STARTCHAR P
ENCODING 80
SWIDTH 448 0
DWIDTH 9 0
BBX 8 13 1 0
BITMAP
3E
3F
33
33
63
7E
7C
60
60
C0
C0
C0
C0
ENDCHAR

STARTCHAR Q
ENCODING 81
SWIDTH 656 0
DWIDTH 12 0
BBX 11 17 1 -4
BITMAP
0F80
1FC0
30C0
6060
6060
C060
C060
C060
C0C0
C0C0
6180
7F00
3E00
0C00
0620
03E0
01C0
ENDCHAR

STARTCHAR R
ENCODING 82
SWIDTH 531 0
DWIDTH 10 0
BBX 9 13 1 0
BITMAP
3F00
3F80
3180
3180
6180
7F00
7E00
6C00
6600
C600
C300
C300
C180
ENDCHAR

STARTCHAR S
ENCODING 83
SWIDTH 458 0
DWIDTH 9 0
BBX 8 13 1 0
BITMAP
1E
3F
63
60
70
38
1C
0E
06
06
C6
FC
78
ENDCHAR

STARTCHAR T
ENCODING 84
SWIDTH 510 0
DWIDTH 10 0
BBX 9 13 2 0
BITMAP
FF80
FF80
0C00
0C00
1800
1800
1800
1800
1800
3000
3000
3000
3000
ENDCHAR

STARTCHAR U
ENCODING 85
SWIDTH 635 0
DWIDTH 12 0
BBX 11 13 1 0
BITMAP
3060
3060
3060
3060
60C0
60C0
60C0
60C0
C180
C180
C180
7F00
3E00
ENDCHAR

STARTCHAR V
ENCODING 86
SWIDTH 510 0
DWIDTH 10 0
BBX 11 13 1 0
BITMAP
C060
C0C0
C0C0
6180
6180
6300
6300
3600
3600
3C00
3C00
1800
1000
ENDCHAR

STARTCHAR W
ENCODING 87
SWIDTH 927 0
DWIDTH 18 0
BBX 19 13 1 0
BITMAP
C04060
C0C0C0
C0C0C0
61E180
61E180
636300
636300
363600
363600
3C3C00
3C3C00
181800
101000
ENDCHAR

STARTCHAR X
ENCODING 88
SWIDTH 667 0
DWIDTH 13 0
BBX 14 13 0 0
BITMAP
600C
3018
1830
0C60
0CC0
0780
0300
0700
0D80
18C0
30C0
6060
C030
ENDCHAR

STARTCHAR Y
ENCODING 89
SWIDTH 490 0
DWIDTH 9 0
BBX 10 13 1 0
BITMAP
C0C0
C180
C300
6600
6C00
3800
3000
3000
3000
6000
6000
6000
6000
ENDCHAR

STARTCHAR Z
ENCODING 90
SWIDTH 583 0
DWIDTH 11 0
BBX 13 13 0 0
BITMAP
3FF8
3FF0
0060
00C0
0180
0300
0600
0600
0C00
1800
3000
7FC0
FFC0
ENDCHAR

STARTCHAR bracketleft
ENCODING 91
SWIDTH 333 0
DWIDTH 6 0
BBX 6 17 2 -4
BITMAP
3C
3C
30
30
30
30
60
60
60
60
60
C0
C0
C0
C0
F0
F0
ENDCHAR

STARTCHAR backslash
ENCODING 92
SWIDTH 281 0
DWIDTH 5 0
BBX 5 13 0 0
BITMAP
C0
C0
C0
60
60
60
60
30
30
30
18
18
18
ENDCHAR

STARTCHAR bracketright
ENCODING 93
SWIDTH 333 0
DWIDTH 6 0
BBX 6 17 -1 -4
BITMAP
3C
3C
0C
0C
0C
0C
18
18
18
18
18
30
30
30
30
F0
F0
ENDCHAR

STARTCHAR asciicircum
ENCODING 94
SWIDTH 469 0
DWIDTH 9 0
BBX 9 8 1 5
BITMAP
0800
1C00
1C00
3600
3600
6300
6300
C180
ENDCHAR

STARTCHAR underscore
ENCODING 95
SWIDTH 500 0
DWIDTH 10 0
BBX 9 2 0 -3
BITMAP
FF80
FF80
ENDCHAR

STARTCHAR quoteleft
ENCODING 96
SWIDTH 198 0
DWIDTH 4 0
BBX 3 4 1 9
BITMAP
60
80
C0
C0
ENDCHAR

STARTCHAR a
ENCODING 97
SWIDTH 469 0
DWIDTH 9 0
BBX 8 9 1 0
BITMAP
1F
3F
63
63
C6
C6
C6
FE
76
ENDCHAR

STARTCHAR b
ENCODING 98
SWIDTH 469 0
DWIDTH 9 0
BBX 8 13 1 0
BITMAP
30
30
30
30
6C
7E
63
63
63
C6
C6
FC
F8
ENDCHAR

STARTCHAR c
ENCODING 99
SWIDTH 385 0
DWIDTH 7 0
BBX 7 9 0 0
BITMAP
3E
7E
60
60
C0
C0
C6
FC
78
ENDCHAR

STARTCHAR d
ENCODING 100
SWIDTH 469 0
DWIDTH 9 0
BBX 9 13 1 0
BITMAP
0180
0180
0180
0180
1F00
3F00
6300
6300
C300
C600
C600
7E00
3E00
ENDCHAR

STARTCHAR e
ENCODING 101
SWIDTH 438 0
DWIDTH 8 0
BBX 7 9 1 0
BITMAP
3C
7E
66
7E
FE
C0
C4
FC
78
ENDCHAR

STARTCHAR f
ENCODING 102
SWIDTH 271 0
DWIDTH 5 0
BBX 6 17 1 -4
BITMAP
0C
1C
30
30
F8
F8
60
60
60
60
60
C0
C0
C0
C0
C0
C0
ENDCHAR

STARTCHAR g
ENCODING 103
SWIDTH 427 0
DWIDTH 8 0
BBX 9 13 -1 -4
BITMAP
0F80
1F80
3300
3300
1E00
3C00
6000
7C00
3E00
6300
C300
FE00
7C00
ENDCHAR

STARTCHAR h
ENCODING 104
SWIDTH 469 0
DWIDTH 9 0
BBX 8 13 1 0
BITMAP
30
30
30
30
6C
7F
73
63
63
C6
C6
C6
C6
ENDCHAR

STARTCHAR i
ENCODING 105
SWIDTH 188 0
DWIDTH 4 0
BBX 4 12 1 0
BITMAP
30
30
00
60
60
60
60
60
C0
C0
C0
C0
ENDCHAR

STARTCHAR j
ENCODING 106
SWIDTH 188 0
DWIDTH 4 0
BBX 6 16 -1 -4
BITMAP
0C
0C
00
18
18
18
18
18
30
30
30
30
30
30
E0
C0
ENDCHAR

STARTCHAR k
ENCODING 107
SWIDTH 458 0
DWIDTH 9 0
BBX 8 13 1 0
BITMAP
30
30
30
30
66
6C
78
70
78
CC
CC
C6
C3
ENDCHAR

STARTCHAR l
ENCODING 108
SWIDTH 188 0
DWIDTH 4 0
BBX 4 13 1 0
BITMAP
30
30
30
30
60
60
60
60
60
C0
C0
C0
C0
ENDCHAR

STARTCHAR m
ENCODING 109
SWIDTH 740 0
DWIDTH 14 0
BBX 13 9 1 0
BITMAP
6E70
7FF8
7398
6318
6318
C630
C630
C630
C630
ENDCHAR

STARTCHAR n
ENCODING 110
SWIDTH 469 0
DWIDTH 9 0
BBX 8 9 1 0
BITMAP
6E
7F
73
63
63
C6
C6
C6
C6
ENDCHAR

STARTCHAR o
ENCODING 111
SWIDTH 448 0
DWIDTH 9 0
BBX 7 9 1 0
BITMAP
3C
7E
66
66
C6
CC
CC
FC
78
ENDCHAR

STARTCHAR p
ENCODING 112
SWIDTH 490 0
DWIDTH 9 0
BBX 8 15 1 -4
BITMAP
30
30
3C
7E
F3
B3
63
66
66
7C
78
C0
C0
C0
C0
ENDCHAR

STARTCHAR q
ENCODING 113
SWIDTH 469 0
DWIDTH 9 0
BBX 8 13 1 -4
BITMAP
1F
3F
63
63
C6
C6
CE
7E
36
0C
0C
0C
0C
ENDCHAR

STARTCHAR r
ENCODING 114
SWIDTH 313 0
DWIDTH 6 0
BBX 5 9 1 0
BITMAP
68
78
60
60
60
C0
C0
C0
C0
ENDCHAR

STARTCHAR s
ENCODING 115
SWIDTH 354 0
DWIDTH 7 0
BBX 6 9 0 0
BITMAP
38
7C
64
60
30
18
98
F8
70
ENDCHAR

STARTCHAR t
ENCODING 116
SWIDTH 281 0
DWIDTH 5 0
BBX 5 11 1 0
BITMAP
30
30
F8
F8
60
60
60
C0
C0
F0
70
ENDCHAR

STARTCHAR u
ENCODING 117
SWIDTH 469 0
DWIDTH 9 0
BBX 8 9 1 0
BITMAP
63
63
63
63
C6
C6
CE
FE
76
ENDCHAR

STARTCHAR v
ENCODING 118
SWIDTH 375 0
DWIDTH 7 0
BBX 8 9 1 0
BITMAP
C3
C6
C6
6C
6C
68
78
30
30
ENDCHAR

STARTCHAR w
ENCODING 119
SWIDTH 615 0
DWIDTH 12 0
BBX 13 9 1 0
BITMAP
C618
C630
C630
6F60
6F60
6B40
7BC0
3180
3180
ENDCHAR

STARTCHAR x
ENCODING 120
SWIDTH 427 0
DWIDTH 8 0
BBX 10 9 0 0
BITMAP
30C0
3180
1B00
1E00
0C00
1E00
3600
6300
C300
ENDCHAR

STARTCHAR y
ENCODING 121
SWIDTH 375 0
DWIDTH 7 0
BBX 8 13 1 -4
BITMAP
C3
C6
C6
6C
6C
78
78
30
30
60
60
C0
C0
ENDCHAR

STARTCHAR z
ENCODING 122
SWIDTH 458 0
DWIDTH 9 0
BBX 9 9 0 0
BITMAP
3F80
3F00
0600
0C00
0C00
1800
3000
7E00
FE00
ENDCHAR

STARTCHAR braceleft
ENCODING 123
SWIDTH 333 0
DWIDTH 6 0
BBX 5 17 1 -4
BITMAP
18
30
30
30
30
30
30
60
C0
60
30
30
30
30
30
30
18
ENDCHAR

STARTCHAR bar
ENCODING 124
SWIDTH 260 0
DWIDTH 5 0
BBX 2 17 2 -4
BITMAP
C0
C0
C0
C0
C0
C0
C0
C0
C0
C0
C0
C0
C0
C0
C0
C0
C0
ENDCHAR

STARTCHAR braceright
ENCODING 125
SWIDTH 333 0
DWIDTH 6 0
BBX 5 17 1 -4
BITMAP
C0
60
60
60
60
60
60
30
18
30
60
60
60
60
60
60
C0
ENDCHAR

STARTCHAR asciitilde
ENCODING 126
SWIDTH 584 0
DWIDTH 11 0
BBX 10 3 1 4
BITMAP
7840
FFC0
8780
ENDCHAR

STARTCHAR space
ENCODING 160
SWIDTH 278 0
DWIDTH 5 0
BBX 0 0 0 0
BITMAP
ENDCHAR

STARTCHAR exclamdown
ENCODING 161
SWIDTH 250 0
DWIDTH 5 0
BBX 4 13 1 -4
BITMAP
30
30
00
00
60
60
60
60
60
C0
C0
C0
C0
ENDCHAR

STARTCHAR cent
ENCODING 162
SWIDTH 385 0
DWIDTH 7 0
BBX 7 15 0 -3
BITMAP
02
02
04
3E
7E
68
68
C8
D0
D6
7C
38
20
40
40
ENDCHAR

STARTCHAR sterling
ENCODING 163
SWIDTH 469 0
DWIDTH 9 0
BBX 8 13 1 0
BITMAP
07
0F
18
18
30
30
FC
FC
60
60
60
FE
FE
ENDCHAR

STARTCHAR currency
ENCODING 164
SWIDTH 552 0
DWIDTH 10 0
BBX 7 7 2 4
BITMAP
D6
FE
6C
C6
6C
FE
D6
ENDCHAR

STARTCHAR yen
ENCODING 165
SWIDTH 552 0
DWIDTH 10 0
BBX 12 14 1 0
BITMAP
3030
3060
30C0
1980
1B00
0E00
0C00
FF00
FF00
1800
FF00
FF00
3000
3000
ENDCHAR

STARTCHAR brokenbar
ENCODING 166
SWIDTH 260 0
DWIDTH 5 0
BBX 2 17 2 -4
BITMAP
C0
C0
C0
C0
C0
C0
C0
00
00
C0
C0
C0
C0
C0
C0
C0
C0
ENDCHAR

STARTCHAR section
ENCODING 167
SWIDTH 490 0
DWIDTH 9 0
BBX 8 17 1 -4
BITMAP
0E
1F
1B
18
0C
3E
7E
67
63
63
33
3E
1C
0C
CC
FC
78
ENDCHAR

STARTCHAR dieresis
ENCODING 168
SWIDTH 333 0
DWIDTH 6 0
BBX 5 2 2 10
BITMAP
D8
D8
ENDCHAR

STARTCHAR copyright
ENCODING 169
SWIDTH 740 0
DWIDTH 14 0
BBX 14 14 1 0
BITMAP
0780
1860
2010
4788
4FC8
98C4
9804
9804
98C4
4FC8
4788
2010
1860
0780
ENDCHAR

STARTCHAR ordfeminine
ENCODING 170
SWIDTH 313 0
DWIDTH 6 0
BBX 6 5 1 8
BITMAP
3C
6C
D8
F8
58
ENDCHAR

STARTCHAR guillemotleft
ENCODING 171
SWIDTH 438 0
DWIDTH 8 0
BBX 10 9 0 0
BITMAP
0CC0
1980
3300
6600
CC00
CC00
6600
6600
3300
ENDCHAR

STARTCHAR logicalnot
ENCODING 172
SWIDTH 584 0
DWIDTH 11 0
BBX 8 5 2 3
BITMAP
FF
FF
03
03
03
ENDCHAR

STARTCHAR hyphen
ENCODING 173
SWIDTH 250 0
DWIDTH 5 0
BBX 5 2 0 4
BITMAP
F8
F8
ENDCHAR

STARTCHAR registered
ENCODING 174
SWIDTH 740 0
DWIDTH 14 0
BBX 14 14 1 0
BITMAP
0780
1860
2010
4F88
4FC8
8CC4
8FC4
8F84
8D84
4CC8
4C68
2010
1860
0780
ENDCHAR

STARTCHAR macron
ENCODING 175
SWIDTH 333 0
DWIDTH 6 0
BBX 6 2 1 10
BITMAP
FC
FC
ENDCHAR

STARTCHAR degree
ENCODING 176
SWIDTH 396 0
DWIDTH 8 0
BBX 5 5 2 9
BITMAP
70
D8
88
D8
70
ENDCHAR

STARTCHAR plusminus
ENCODING 177
SWIDTH 584 0
DWIDTH 11 0
BBX 8 10 2 0
BITMAP
18
18
18
FF
FF
18
18
18
FF
FF
ENDCHAR

STARTCHAR twosuperior
ENCODING 178
SWIDTH 323 0
DWIDTH 6 0
BBX 6 7 1 6
BITMAP
38
7C
18
30
60
F0
F0
ENDCHAR

STARTCHAR threesuperior
ENCODING 179
SWIDTH 323 0
DWIDTH 6 0
BBX 5 7 2 6
BITMAP
78
18
30
70
18
F8
F0
ENDCHAR

STARTCHAR acute
ENCODING 180
SWIDTH 333 0
DWIDTH 6 0
BBX 4 3 1 10
BITMAP
30
60
C0
ENDCHAR

STARTCHAR mu
ENCODING 181
SWIDTH 552 0
DWIDTH 10 0
BBX 10 12 0 -3
BITMAP
30C0
30C0
30C0
30C0
6180
6180
6180
7F80
7D80
C000
C000
C000
ENDCHAR

STARTCHAR paragraph
ENCODING 182
SWIDTH 542 0
DWIDTH 10 0
BBX 10 17 1 -3
BITMAP
7FC0
F980
F980
F980
F980
F980
7980
1980
1980
1980
1980
1980
1980
1980
1980
1980
1980
ENDCHAR

STARTCHAR periodcentered
ENCODING 183
SWIDTH 260 0
DWIDTH 5 0
BBX 2 2 2 6
BITMAP
C0
C0
ENDCHAR

STARTCHAR cedilla
ENCODING 184
SWIDTH 333 0
DWIDTH 6 0
BBX 4 3 1 -3
BITMAP
60
30
E0
ENDCHAR

STARTCHAR onesuperior
ENCODING 185
SWIDTH 323 0
DWIDTH 6 0
BBX 3 7 3 6
BITMAP
60
60
60
60
C0
C0
C0
ENDCHAR

STARTCHAR ordmasculine
ENCODING 186
SWIDTH 302 0
DWIDTH 6 0
BBX 5 7 2 6
BITMAP
30
78
58
D8
D0
F0
60
ENDCHAR

STARTCHAR guillemotright
ENCODING 187
SWIDTH 438 0
DWIDTH 8 0
BBX 10 9 -1 0
BITMAP
3300
1980
1980
0CC0
0CC0
1980
3300
6600
CC00
ENDCHAR

STARTCHAR onequarter
ENCODING 188
SWIDTH 844 0
DWIDTH 16 0
BBX 13 13 1 0
BITMAP
1818
1830
1860
18C0
3180
3300
3630
0460
0CE0
1960
33F0
60C0
C0C0
ENDCHAR

STARTCHAR onehalf
ENCODING 189
SWIDTH 844 0
DWIDTH 16 0
BBX 13 13 1 0
BITMAP
1830
1860
18C0
1880
3180
3300
3670
0C78
0818
1830
3040
60F0
C1F0
ENDCHAR

STARTCHAR threequarters
ENCODING 190
SWIDTH 844 0
DWIDTH 16 0
BBX 13 13 2 0
BITMAP
7018
1830
1060
70C0
1980
1B00
E218
0630
0C70
18B0
31F8
6060
C060
ENDCHAR

STARTCHAR questiondown
ENCODING 191
SWIDTH 354 0
DWIDTH 7 0
BBX 6 13 1 -4
BITMAP
0C
0C
00
08
08
18
10
30
60
C0
C0
F8
70
ENDCHAR

STARTCHAR Agrave
ENCODING 192
SWIDTH 521 0
DWIDTH 10 0
BBX 10 17 0 0
BITMAP
0600
0300
0180
0000
0300
0300
0700
0D80
0D80
1980
1980
3180
3F80
7FC0
60C0
C0C0
C0C0
ENDCHAR

STARTCHAR Aacute
ENCODING 193
SWIDTH 521 0
DWIDTH 10 0
BBX 10 17 0 0
BITMAP
0180
0300
0600
0000
0300
0300
0700
0D80
0D80
1980
1980
3180
3F80
7FC0
60C0
C0C0
C0C0
ENDCHAR

STARTCHAR Acircumflex
ENCODING 194
SWIDTH 521 0
DWIDTH 10 0
BBX 10 17 0 0
BITMAP
0100
0380
0480
0000
0300
0300
0700
0D80
0D80
1980
1980
3180
3F80
7FC0
60C0
C0C0
C0C0
ENDCHAR

STARTCHAR Atilde
ENCODING 195
SWIDTH 521 0
DWIDTH 10 0
BBX 10 17 0 0
BITMAP
0640
0FC0
0980
0000
0300
0300
0700
0D80
0D80
1980
1980
3180
3F80
7FC0
60C0
C0C0
C0C0
ENDCHAR

STARTCHAR Adieresis
ENCODING 196
SWIDTH 521 0
DWIDTH 10 0
BBX 10 16 0 0
BITMAP
06C0
06C0
0000
0300
0300
0700
0D80
0D80
1980
1980
3180
3F80
7FC0
60C0
C0C0
C0C0
ENDCHAR

STARTCHAR Aring
ENCODING 197
SWIDTH 521 0
DWIDTH 10 0
BBX 10 17 0 0
BITMAP
0300
0480
0480
0300
0300
0300
0700
0D80
0D80
1980
1980
3180
3F80
7FC0
60C0
C0C0
C0C0
ENDCHAR

STARTCHAR AE
ENCODING 198
SWIDTH 833 0
DWIDTH 16 0
BBX 16 13 0 0
BITMAP
01FF
01FF
0330
0330
0660
0C7E
0FFE
1FE0
3060
30C0
60C0
60FE
C0FE
ENDCHAR

STARTCHAR Ccedilla
ENCODING 199
SWIDTH 552 0
DWIDTH 10 0
BBX 10 16 1 -3
BITMAP
0FC0
1FC0
3000
6000
6000
C000
C000
C000
C000
C080
6180
7F00
3E00
1800
0C00
3800
ENDCHAR

STARTCHAR Egrave
ENCODING 200
SWIDTH 510 0
DWIDTH 10 0
BBX 8 17 1 0
BITMAP
18
0C
06
00
3F
3F
30
30
60
7E
7E
60
60
C0
C0
FE
FE
ENDCHAR

STARTCHAR Eacute
ENCODING 201
SWIDTH 510 0
DWIDTH 10 0
BBX 8 17 1 0
BITMAP
03
06
0C
00
3F
3F
30
30
60
7E
7E
60
60
C0
C0
FE
FE
ENDCHAR

STARTCHAR Ecircumflex
ENCODING 202
SWIDTH 510 0
DWIDTH 10 0
BBX 8 17 1 0
BITMAP
04
0E
1A
00
3F
3F
30
30
60
7E
7E
60
60
C0
C0
FE
FE
ENDCHAR

STARTCHAR Edieresis
ENCODING 203
SWIDTH 510 0
DWIDTH 10 0
BBX 8 16 1 0
BITMAP
1B
1B
00
3F
3F
30
30
60
7E
7E
60
60
C0
C0
FE
FE
ENDCHAR

STARTCHAR Igrave
ENCODING 204
SWIDTH 240 0
DWIDTH 5 0
BBX 5 17 1 0
BITMAP
60
30
18
00
30
30
30
30
60
60
60
60
60
C0
C0
C0
C0
ENDCHAR

STARTCHAR Iacute
ENCODING 205
SWIDTH 240 0
DWIDTH 5 0
BBX 6 17 1 0
BITMAP
0C
18
30
00
30
30
30
30
60
60
60
60
60
C0
C0
C0
C0
ENDCHAR

STARTCHAR Icircumflex
ENCODING 206
SWIDTH 240 0
DWIDTH 5 0
BBX 5 17 1 0
BITMAP
10
38
48
00
30
30
30
30
60
60
60
60
60
C0
C0
C0
C0
ENDCHAR

STARTCHAR Idieresis
ENCODING 207
SWIDTH 240 0
DWIDTH 5 0
BBX 6 16 1 0
BITMAP
6C
6C
00
30
30
30
30
60
60
60
60
60
C0
C0
C0
C0
ENDCHAR

STARTCHAR Eth
ENCODING 208
SWIDTH 656 0
DWIDTH 12 0
BBX 11 13 1 0
BITMAP
3F00
3F80
30C0
30C0
6060
6060
FC60
FC60
60C0
C0C0
C180
FF00
FE00
ENDCHAR

STARTCHAR Ntilde
ENCODING 209
SWIDTH 688 0
DWIDTH 13 0
BBX 12 17 1 0
BITMAP
0320
07E0
04C0
0000
3030
3830
3830
2C30
6C60
6660
6660
6360
6360
C1C0
C1C0
C0C0
C0C0
ENDCHAR

STARTCHAR Ograve
ENCODING 210
SWIDTH 656 0
DWIDTH 12 0
BBX 11 17 1 0
BITMAP
0C00
0600
0300
0000
0F80
1FC0
30C0
6060
6060
C060
C060
C060
C0C0
C0C0
6180
7F00
3E00
ENDCHAR

STARTCHAR Oacute
ENCODING 211
SWIDTH 656 0
DWIDTH 12 0
BBX 11 17 1 0
BITMAP
00C0
0180
0300
0000
0F80
1FC0
30C0
6060
6060
C060
C060
C060
C0C0
C0C0
6180
7F00
3E00
ENDCHAR

STARTCHAR Ocircumflex
ENCODING 212
SWIDTH 656 0
DWIDTH 12 0
BBX 11 17 1 0
BITMAP
0100
0380
0480
0000
0F80
1FC0
30C0
6060
6060
C060
C060
C060
C0C0
C0C0
6180
7F00
3E00
ENDCHAR

STARTCHAR Otilde
ENCODING 213
SWIDTH 656 0
DWIDTH 12 0
BBX 11 17 1 0
BITMAP
0640
0FC0
0980
0000
0F80
1FC0
30C0
6060
6060
C060
C060
C060
C0C0
C0C0
6180
7F00
3E00
ENDCHAR

STARTCHAR Odieresis
ENCODING 214
SWIDTH 656 0
DWIDTH 12 0
BBX 11 16 1 0
BITMAP
0D80
0D80
0000
0F80
1FC0
30C0
6060
6060
C060
C060
C060
C0C0
C0C0
6180
7F00
3E00
ENDCHAR

STARTCHAR multiply
ENCODING 215
SWIDTH 584 0
DWIDTH 11 0
BBX 10 9 1 2
BITMAP
C0C0
6180
3300
1E00
0C00
1E00
3300
6180
C0C0
ENDCHAR

STARTCHAR Oslash
ENCODING 216
SWIDTH 656 0
DWIDTH 12 0
BBX 11 13 1 0
BITMAP
0FA0
1FE0
30C0
61E0
6360
C660
CC60
D860
F0C0
E0C0
6180
FF00
BE00
ENDCHAR

STARTCHAR Ugrave
ENCODING 217
SWIDTH 635 0
DWIDTH 12 0
BBX 11 17 1 0
BITMAP
0C00
0600
0300
0000
3060
3060
3060
3060
60C0
60C0
60C0
60C0
C180
C180
C180
7F00
3E00
ENDCHAR

STARTCHAR Uacute
ENCODING 218
SWIDTH 635 0
DWIDTH 12 0
BBX 11 17 1 0
BITMAP
00C0
0180
0300
0000
3060
3060
3060
3060
60C0
60C0
60C0
60C0
C180
C180
C180
7F00
3E00
ENDCHAR

STARTCHAR Ucircumflex
ENCODING 219
SWIDTH 635 0
DWIDTH 12 0
BBX 11 17 1 0
BITMAP
0100
0380
0480
0000
3060
3060
3060
3060
60C0
60C0
60C0
60C0
C180
C180
C180
7F00
3E00
ENDCHAR

STARTCHAR Udieresis
ENCODING 220
SWIDTH 635 0
DWIDTH 12 0
BBX 11 16 1 0
BITMAP
06C0
06C0
0000
3060
3060
3060
3060
60C0
60C0
60C0
60C0
C180
C180
C180
7F00
3E00
ENDCHAR

STARTCHAR Yacute
ENCODING 221
SWIDTH 490 0
DWIDTH 9 0
BBX 10 17 1 0
BITMAP
0300
0600
0C00
0000
C0C0
C180
C300
6600
6C00
3800
3000
3000
3000
6000
6000
6000
6000
ENDCHAR

STARTCHAR Thorn
ENCODING 222
SWIDTH 448 0
DWIDTH 9 0
BBX 8 13 1 0
BITMAP
30
30
30
3E
7F
63
63
63
7E
FC
C0
C0
C0
ENDCHAR

STARTCHAR germandbls
ENCODING 223
SWIDTH 500 0
DWIDTH 10 0
BBX 8 13 1 0
BITMAP
1E
3F
33
33
66
6C
66
63
63
C3
D3
DE
CC
ENDCHAR

STARTCHAR agrave
ENCODING 224
SWIDTH 469 0
DWIDTH 9 0
BBX 8 13 1 0
BITMAP
18
0C
06
00
1F
3F
63
63
C6
C6
C6
FE
76
ENDCHAR

STARTCHAR aacute
ENCODING 225
SWIDTH 469 0
DWIDTH 9 0
BBX 9 13 1 0
BITMAP
0180
0300
0600
0000
1F00
3F00
6300
6300
C600
C600
C600
FE00
7600
ENDCHAR

STARTCHAR acircumflex
ENCODING 226
SWIDTH 469 0
DWIDTH 9 0
BBX 8 13 1 0
BITMAP
02
07
09
00
1F
3F
63
63
C6
C6
C6
FE
76
ENDCHAR

STARTCHAR atilde
ENCODING 227
SWIDTH 469 0
DWIDTH 9 0
BBX 9 13 1 0
BITMAP
0C80
1F80
1300
0000
1F00
3F00
6300
6300
C600
C600
C600
FE00
7600
ENDCHAR

STARTCHAR adieresis
ENCODING 228
SWIDTH 469 0
DWIDTH 9 0
BBX 8 12 1 0
BITMAP
1B
1B
00
1F
3F
63
63
C6
C6
C6
FE
76
ENDCHAR

STARTCHAR aring
ENCODING 229
SWIDTH 469 0
DWIDTH 9 0
BBX 8 14 1 0
BITMAP
06
09
09
06
00
1F
3F
63
63
C6
C6
C6
FE
76
ENDCHAR

STARTCHAR ae
ENCODING 230
SWIDTH 646 0
DWIDTH 12 0
BBX 12 9 0 0
BITMAP
3DE0
3FF0
0630
0FF0
3FF0
7600
CE20
FFE0
73C0
ENDCHAR

STARTCHAR ccedilla
ENCODING 231
SWIDTH 385 0
DWIDTH 7 0
BBX 7 12 0 -3
BITMAP
3E
7E
60
60
C0
C0
C6
FC
78
30
18
70
ENDCHAR

STARTCHAR egrave
ENCODING 232
SWIDTH 438 0
DWIDTH 8 0
BBX 7 13 1 0
BITMAP
30
18
0C
00
3C
7E
66
7E
FE
C0
C4
FC
78
ENDCHAR

STARTCHAR eacute
ENCODING 233
SWIDTH 438 0
DWIDTH 8 0
BBX 8 13 1 0
BITMAP
03
06
0C
00
3C
7E
66
7E
FE
C0
C4
FC
78
ENDCHAR

STARTCHAR ecircumflex
ENCODING 234
SWIDTH 438 0
DWIDTH 8 0
BBX 7 13 1 0
BITMAP
04
0E
1A
00
3C
7E
66
7E
FE
C0
C4
FC
78
ENDCHAR

STARTCHAR edieresis
ENCODING 235
SWIDTH 438 0
DWIDTH 8 0
BBX 7 12 1 0
BITMAP
36
36
00
3C
7E
66
7E
FE
C0
C4
FC
78
ENDCHAR

STARTCHAR igrave
ENCODING 236
SWIDTH 188 0
DWIDTH 4 0
BBX 4 13 1 0
BITMAP
C0
60
30
00
60
60
60
60
60
C0
C0
C0
C0
ENDCHAR

STARTCHAR iacute
ENCODING 237
SWIDTH 188 0
DWIDTH 4 0
BBX 5 13 1 0
BITMAP
18
30
60
00
60
60
60
60
60
C0
C0
C0
C0
ENDCHAR

STARTCHAR icircumflex
ENCODING 238
SWIDTH 188 0
DWIDTH 4 0
BBX 4 13 1 0
BITMAP
20
70
90
00
60
60
60
60
60
C0
C0
C0
C0
ENDCHAR

STARTCHAR idieresis
ENCODING 239
SWIDTH 188 0
DWIDTH 4 0
BBX 5 12 1 0
BITMAP
D8
D8
00
60
60
60
60
60
C0
C0
C0
C0
ENDCHAR

STARTCHAR eth
ENCODING 240
SWIDTH 448 0
DWIDTH 9 0
BBX 7 13 1 0
BITMAP
36
18
6C
06
3E
7E
66
66
C6
C6
CC
FC
78
ENDCHAR

STARTCHAR ntilde
ENCODING 241
SWIDTH 469 0
DWIDTH 9 0
BBX 9 13 1 0
BITMAP
0C80
1F80
1300
0000
6E00
7F00
7300
6300
6300
C600
C600
C600
C600
ENDCHAR

STARTCHAR ograve
ENCODING 242
SWIDTH 448 0
DWIDTH 9 0
BBX 7 13 1 0
BITMAP
30
18
0C
00
3C
7E
66
66
C6
CC
CC
FC
78
ENDCHAR

STARTCHAR oacute
ENCODING 243
SWIDTH 448 0
DWIDTH 9 0
BBX 7 13 1 0
BITMAP
06
0C
18
00
3C
7E
66
66
C6
CC
CC
FC
78
ENDCHAR

STARTCHAR ocircumflex
ENCODING 244
SWIDTH 448 0
DWIDTH 9 0
BBX 7 13 1 0
BITMAP
04
0E
12
00
3C
7E
66
66
C6
CC
CC
FC
78
ENDCHAR

STARTCHAR otilde
ENCODING 245
SWIDTH 448 0
DWIDTH 9 0
BBX 8 13 1 0
BITMAP
19
3F
26
00
3C
7E
66
66
C6
CC
CC
FC
78
ENDCHAR

STARTCHAR odieresis
ENCODING 246
SWIDTH 448 0
DWIDTH 9 0
BBX 7 12 1 0
BITMAP
36
36
00
3C
7E
66
66
C6
CC
CC
FC
78
ENDCHAR

STARTCHAR divide
ENCODING 247
SWIDTH 584 0
DWIDTH 11 0
BBX 8 8 2 2
BITMAP
18
18
00
FF
FF
00
18
18
ENDCHAR

STARTCHAR oslash
ENCODING 248
SWIDTH 448 0
DWIDTH 9 0
BBX 7 11 1 -1
BITMAP
02
3E
7E
66
6E
D6
EC
CC
FC
F8
80
ENDCHAR

STARTCHAR ugrave
ENCODING 249
SWIDTH 469 0
DWIDTH 9 0
BBX 8 13 1 0
BITMAP
30
18
0C
00
63
63
63
63
C6
C6
CE
FE
76
ENDCHAR

STARTCHAR uacute
ENCODING 250
SWIDTH 469 0
DWIDTH 9 0
BBX 8 13 1 0
BITMAP
03
06
0C
00
63
63
63
63
C6
C6
CE
FE
76
ENDCHAR

STARTCHAR ucircumflex
ENCODING 251
SWIDTH 469 0
DWIDTH 9 0
BBX 8 13 1 0
BITMAP
04
0E
12
00
63
63
63
63
C6
C6
CE
FE
76
ENDCHAR

STARTCHAR udieresis
ENCODING 252
SWIDTH 469 0
DWIDTH 9 0
BBX 8 12 1 0
BITMAP
1B
1B
00
63
63
63
63
C6
C6
CE
FE
76
ENDCHAR

STARTCHAR yacute
ENCODING 253
SWIDTH 375 0
DWIDTH 7 0
BBX 8 17 1 -4
BITMAP
06
0C
18
00
C3
C6
C6
6C
6C
78
78
30
30
60
60
C0
C0
ENDCHAR

STARTCHAR thorn
ENCODING 254
SWIDTH 490 0
DWIDTH 9 0
BBX 8 17 1 -4
BITMAP
30
30
30
30
7E
7F
63
63
63
63
C7
FE
FC
C0
C0
C0
C0
ENDCHAR

STARTCHAR ydieresis
ENCODING 255
SWIDTH 375 0
DWIDTH 7 0
BBX 8 16 1 -4
BITMAP
36
36
00
C3
C6
C6
6C
6C
78
78
30
30
60
60
C0
C0
ENDCHAR
ENDFONT
